<svg width="101" height="76" viewBox="0 0 101 76" fill="none" xmlns="http://www.w3.org/2000/svg">
<g clip-path="url(#clip0_544_12951)">
<path d="M58.6343 16.4304C85.3701 15.3593 104.14 27.8149 100.565 44.2455C96.9817 60.676 72.4014 74.8756 45.6744 75.9468C18.9298 77.0091 0.168553 64.5534 3.75225 48.1141C7.32708 31.6835 31.8985 17.5016 58.6343 16.4304ZM47.3776 68.0679C67.0347 67.28 85.1129 56.8428 87.7474 44.7589C90.382 32.675 76.5705 23.5214 56.9134 24.3093C37.2563 25.0883 19.1959 35.5256 16.5613 47.6095C13.9268 59.6933 27.7205 68.8558 47.3776 68.0679Z" fill="url(#paint0_linear_544_12951)"/>
<path d="M81.6445 4.22266L84.6959 20.5824L74.4682 26.7438L71.4256 10.3841L81.6445 4.22266Z" fill="url(#paint1_linear_544_12951)"/>
<path d="M16.925 45.4847C16.9871 45.3254 17.058 45.1572 17.1201 44.9978C17.2 44.8031 17.2798 44.5995 17.3685 44.4047C17.4395 44.2454 17.5193 44.0772 17.5991 43.9178C17.6878 43.7319 17.7765 43.546 17.883 43.3601C18.016 43.1122 18.158 42.8643 18.2999 42.6253C18.3797 42.4837 18.4596 42.3509 18.5483 42.2092C18.7257 41.9171 18.9208 41.625 19.116 41.3417C19.1781 41.2532 19.2313 41.1646 19.2845 41.085C19.6482 40.5715 20.0385 40.0669 20.4554 39.5712C20.5353 39.4738 20.624 39.3675 20.7127 39.2702C21.1296 38.7833 21.5643 38.3052 22.0255 37.836C22.0965 37.7652 22.1675 37.6944 22.2384 37.6236C22.7973 37.0659 23.3827 36.5258 24.0037 35.9947C24.048 35.9504 24.1012 35.915 24.1456 35.8707C24.7931 35.3219 25.4762 34.7819 26.1858 34.2596C26.1947 34.2596 26.1947 34.2507 26.2036 34.2507C26.9132 33.7284 27.6672 33.2238 28.4389 32.7369C28.501 32.7015 28.5631 32.6572 28.6252 32.613C29.3703 32.1438 30.1421 31.7011 30.9316 31.2585C31.038 31.1965 31.1356 31.1434 31.242 31.0815C31.9339 30.7097 32.6524 30.3467 33.3798 29.9926C33.5218 29.9218 33.6637 29.8598 33.8145 29.789C34.5596 29.4437 35.3136 29.0985 36.0853 28.7798C36.1563 28.7532 36.2184 28.7267 36.2894 28.7001C37.4159 28.2398 38.578 27.806 39.7577 27.4076C39.8819 27.3633 40.015 27.3191 40.1392 27.2837C41.0617 26.9827 42.0109 26.6994 42.96 26.4338C43.1108 26.3896 43.2616 26.3541 43.4213 26.3099C44.2995 26.0797 45.1776 25.8584 46.0736 25.6636C46.1978 25.6371 46.3308 25.6105 46.455 25.584C47.2622 25.4158 48.0694 25.2564 48.8855 25.1236C48.992 25.1059 49.0984 25.0882 49.2137 25.0705C50.0476 24.9289 50.8992 24.8138 51.7419 24.7164C51.9281 24.6898 52.1144 24.6721 52.3007 24.6544C53.1611 24.5571 54.0216 24.4774 54.8909 24.4154C55.4675 24.38 56.0529 24.3446 56.6295 24.318C57.2416 24.2915 57.8359 24.2915 58.4391 24.2826C59.1665 24.2738 59.885 24.2826 60.5947 24.3092C60.8342 24.318 61.0825 24.318 61.322 24.3269C62.351 24.3712 63.3623 24.442 64.3469 24.5482C64.7549 24.5925 65.1541 24.6367 65.5533 24.6898C65.846 24.7253 66.1476 24.7607 66.4315 24.8049C66.8839 24.8669 67.3363 24.9466 67.7798 25.0262C68.037 25.0705 68.2943 25.1059 68.5427 25.159C68.6935 25.1856 68.8443 25.2299 68.9951 25.2564C69.7757 25.4158 70.5474 25.5928 71.2925 25.7964C71.5232 25.8584 71.7538 25.9204 71.9844 25.9823C72.836 26.2214 73.6698 26.4781 74.4593 26.7702L71.4078 10.4017C70.6095 10.1095 69.7845 9.8528 68.933 9.61378C68.7023 9.55181 68.4717 9.48984 68.2411 9.42788C67.4959 9.23312 66.7331 9.04721 65.9525 8.88786C65.8549 8.8436 65.7484 8.81704 65.642 8.79049C65.5976 8.78163 65.5533 8.77278 65.5089 8.76393C65.2606 8.71966 65.0033 8.6754 64.7461 8.63114C64.3025 8.55146 63.859 8.47179 63.3977 8.40982C63.105 8.36556 62.8123 8.33015 62.5196 8.29474C62.2002 8.25047 61.8809 8.20621 61.5615 8.1708C61.4817 8.16195 61.393 8.16195 61.3132 8.15309C60.3285 8.05572 59.3173 7.97604 58.2883 7.93178C58.2351 7.93178 58.1819 7.92293 58.1198 7.92293C57.9424 7.91407 57.7472 7.92293 57.5698 7.91407C56.8602 7.89637 56.1328 7.88751 55.4054 7.88751C55.2546 7.88751 55.1038 7.87866 54.953 7.87866C54.5095 7.88751 54.0571 7.89637 53.6047 7.91407C53.0458 7.94063 52.4781 7.96719 51.9193 8.0026C51.9015 8.0026 51.8838 8.0026 51.8572 8.01145C50.9879 8.07342 50.1274 8.15309 49.267 8.25047C49.1694 8.25933 49.0718 8.26818 48.9742 8.27703C48.8855 8.28588 48.7968 8.30359 48.7081 8.31244C47.8654 8.44523 47.0139 8.56032 46.18 8.70196C46.1534 8.71081 46.1179 8.71081 46.0913 8.71081C46.0203 8.71966 45.9405 8.73737 45.8696 8.75508C45.0535 8.89672 44.2374 9.04721 43.4302 9.21541C43.3414 9.23312 43.2527 9.25082 43.164 9.26853C43.1286 9.27738 43.0842 9.28623 43.0487 9.29509C42.1528 9.48984 41.2657 9.71116 40.3876 9.94133C40.2988 9.96789 40.219 9.97674 40.1303 10.0033C40.0593 10.021 39.9973 10.0476 39.9263 10.0653C38.9683 10.3308 38.028 10.6141 37.1055 10.9151C37.0345 10.9417 36.9635 10.9594 36.8926 10.9771C36.8305 10.9948 36.7772 11.0214 36.724 11.0391C35.5442 11.4374 34.3822 11.8624 33.2556 12.3227C33.2202 12.3404 33.1758 12.3493 33.1315 12.367C33.1048 12.3758 33.0782 12.3935 33.0516 12.4024C32.2799 12.7211 31.5259 13.0575 30.7808 13.4116C30.63 13.4824 30.488 13.5444 30.3461 13.6152C29.6187 13.9693 28.9091 14.3234 28.2083 14.7041C28.1639 14.7218 28.1196 14.7483 28.0841 14.766C28.022 14.8014 27.9599 14.8368 27.8978 14.8811C27.1084 15.3149 26.3366 15.7664 25.6004 16.2267C25.5383 16.271 25.4762 16.3064 25.4141 16.3506C24.6423 16.8375 23.8972 17.3421 23.1876 17.8645C23.1787 17.8733 23.1787 17.8733 23.1698 17.8822C22.4602 18.4045 21.7772 18.9445 21.1296 19.4933C21.0853 19.5376 21.032 19.573 20.9788 19.6173C20.3579 20.1484 19.7724 20.6884 19.2136 21.2462C19.1692 21.2904 19.116 21.3347 19.0716 21.379C19.045 21.4055 19.0184 21.4321 18.9918 21.4586C18.5305 21.9278 18.0959 22.4059 17.679 22.8928C17.5903 22.9901 17.5104 23.0964 17.4217 23.1937C17.0048 23.6895 16.6145 24.1941 16.2508 24.7076C16.2419 24.7164 16.2419 24.7253 16.2331 24.7341C16.1798 24.8138 16.1355 24.8935 16.0823 24.9731C15.8871 25.2653 15.692 25.5486 15.5057 25.8407C15.417 25.9823 15.346 26.1151 15.2662 26.2568C15.1243 26.5046 14.9823 26.7437 14.8493 26.9915C14.8227 27.0447 14.7872 27.0978 14.7606 27.1509C14.6896 27.2837 14.6364 27.4165 14.5743 27.5493C14.4944 27.7086 14.4146 27.8768 14.3436 28.0361C14.2549 28.2309 14.1751 28.4257 14.0953 28.6293C14.0243 28.7886 13.9622 28.9568 13.9001 29.1162C13.8824 29.1604 13.8646 29.2047 13.8469 29.249C13.8292 29.3021 13.8203 29.364 13.8025 29.4172C13.6074 29.9837 13.4388 30.5503 13.3058 31.1257C13.3058 31.1434 13.2969 31.17 13.288 31.1877C13.288 31.2054 13.2792 31.2231 13.2792 31.2408C13.1639 31.7808 13.084 32.312 13.0308 32.8431C13.0219 32.8963 13.0042 32.9582 13.0042 33.0113C12.9953 33.1087 13.0042 33.2061 12.9953 33.3035C12.9687 33.693 12.9598 34.0825 12.9687 34.4632C12.9687 34.5606 12.9598 34.6579 12.9598 34.7465C12.9598 34.8084 12.9776 34.8615 12.9776 34.9235C13.0131 35.437 13.0574 35.9504 13.155 36.4462L16.2065 52.8147C16.1178 52.319 16.0645 51.8055 16.029 51.2921C16.0202 51.1416 16.0202 50.9822 16.0113 50.8317C16.0024 50.4511 16.0113 50.0615 16.0379 49.6632C16.0468 49.5038 16.0557 49.3533 16.0734 49.194C16.1266 48.6628 16.1976 48.1317 16.3218 47.5917C16.3306 47.5562 16.3395 47.5208 16.3484 47.4766C16.4814 46.9012 16.65 46.3346 16.8451 45.768C16.854 45.6883 16.8895 45.5821 16.925 45.4847Z" fill="url(#paint2_linear_544_12951)"/>
<path d="M55.3164 0.0616701C65.5264 -0.345552 74.5655 1.21251 81.6442 4.22242L71.4165 10.3839C66.4578 8.57792 60.3815 7.6661 53.6044 7.94053C33.9473 8.72842 15.878 19.1568 13.2435 31.2407C10.6089 43.3246 24.4115 52.4871 44.0686 51.6992C51.919 51.3893 59.5033 49.5303 65.9611 46.662L72.1705 52.6995C63.3798 56.6213 53.0456 59.1531 42.3566 59.578C15.6208 60.6492 -3.14044 48.1847 0.434386 31.7542C4.00922 15.3236 28.5895 1.13284 55.3164 0.0616701Z" fill="url(#paint3_linear_544_12951)"/>
<path d="M71.4079 70.6263C71.7184 70.5113 72.02 70.3873 72.3216 70.2634C72.6054 70.1483 72.8981 70.0421 73.182 69.927C73.865 69.6437 74.5392 69.3604 75.2045 69.0594L72.153 52.6909C71.2127 53.1158 70.237 53.5053 69.2612 53.8948C68.9596 54.0188 68.658 54.1339 68.3476 54.2489C67.4694 54.5853 66.5823 54.904 65.6775 55.2139C65.509 55.267 65.3493 55.329 65.1896 55.3909C64.9324 55.4795 64.6663 55.5503 64.409 55.63C63.3091 55.9841 62.2003 56.3205 61.0737 56.6303C60.5503 56.772 60.0181 56.9047 59.4859 57.0375C58.7141 57.2323 57.9424 57.427 57.1618 57.6041C56.5675 57.7369 55.9643 57.8608 55.3699 57.9848C54.6869 58.1264 54.0039 58.2592 53.312 58.3743C52.6822 58.4894 52.0435 58.5867 51.4048 58.6841C50.7484 58.7815 50.092 58.8789 49.4356 58.9586C48.788 59.0382 48.1316 59.109 47.4752 59.1799C46.8099 59.2507 46.1446 59.3127 45.4793 59.3658C44.4326 59.4454 43.3858 59.5251 42.3391 59.5694C41.6916 59.5959 41.044 59.6136 40.3965 59.6225C38.9683 59.6491 37.5668 59.6314 36.1918 59.5782C36.1741 59.5782 36.1475 59.5782 36.1297 59.5782C35.3935 59.5517 34.6572 59.5074 33.9298 59.4543C33.7081 59.4366 33.4952 59.4189 33.2734 59.4012C32.7678 59.3569 32.2711 59.3215 31.7743 59.2684C31.5525 59.2418 31.3396 59.2241 31.1268 59.1976C30.3905 59.1179 29.6631 59.0205 28.9535 58.9143C28.8115 58.8966 28.6696 58.8789 28.5277 58.8523C27.7116 58.7284 26.9132 58.5867 26.1238 58.4362C25.9375 58.4008 25.7423 58.3566 25.556 58.3212C24.8908 58.1884 24.2432 58.0379 23.6045 57.8874C23.4626 57.852 23.3207 57.8254 23.1876 57.79C22.4425 57.6041 21.7151 57.4005 20.9966 57.1969C20.8281 57.1438 20.6595 57.0906 20.4998 57.0464C19.8966 56.8605 19.3112 56.6657 18.7346 56.471C18.5927 56.4178 18.4507 56.3736 18.3088 56.3205C17.6347 56.0814 16.9782 55.8247 16.3307 55.5503C16.1888 55.4883 16.0468 55.4263 15.9049 55.3644C15.3638 55.1342 14.8404 54.8952 14.3259 54.6473C14.1929 54.5853 14.051 54.5145 13.9179 54.4526C13.3147 54.1516 12.7292 53.8506 12.1615 53.5319C12.0462 53.4611 11.9309 53.3991 11.8156 53.3283C11.3366 53.0538 10.8753 52.7706 10.4318 52.4873C10.3076 52.4076 10.1745 52.3279 10.0503 52.2482C9.52698 51.903 9.02136 51.5489 8.53348 51.1771C8.44477 51.1063 8.36494 51.0443 8.27623 50.9735C7.86819 50.6548 7.46901 50.3272 7.08758 49.9997C6.97226 49.9023 6.86582 49.8049 6.75937 49.7075C6.31584 49.318 5.89893 48.9108 5.49975 48.5036C5.43766 48.4416 5.38444 48.3708 5.32234 48.3088C4.97639 47.9459 4.64818 47.574 4.33771 47.1934C4.24901 47.0871 4.1603 46.9809 4.0716 46.8658C3.72564 46.4321 3.38856 45.9894 3.08697 45.5291C3.05148 45.476 3.016 45.4229 2.98052 45.3697C2.70553 44.9625 2.45716 44.5376 2.22652 44.1215C2.15556 43.9976 2.09346 43.8825 2.03137 43.7586C1.783 43.2805 1.54349 42.8025 1.33947 42.3067C1.32173 42.2713 1.31286 42.2359 1.30399 42.2093C1.11771 41.749 0.949165 41.271 0.798366 40.8018C0.754013 40.669 0.718531 40.545 0.683049 40.4123C0.532249 39.8988 0.408062 39.3853 0.310486 38.863L3.36195 55.2316C3.45953 55.7539 3.59259 56.2762 3.73452 56.7808C3.77 56.9136 3.81435 57.0464 3.84983 57.1703C4.00063 57.6484 4.1603 58.1176 4.35545 58.5779C4.37319 58.6133 4.38206 58.6487 4.39094 58.6753C4.59496 59.1622 4.83446 59.6491 5.08284 60.1183C5.14493 60.2422 5.2159 60.3573 5.27799 60.4812C5.51749 60.9061 5.76587 61.3222 6.03199 61.7294C6.06747 61.7826 6.10295 61.8357 6.13843 61.8976C6.44003 62.3491 6.77711 62.7918 7.12306 63.2255C7.21177 63.3318 7.30047 63.4468 7.38918 63.5531C7.69965 63.9337 8.02786 64.2967 8.37381 64.6597C8.4359 64.7216 8.48913 64.7925 8.55122 64.8544C8.95039 65.2705 9.37618 65.6689 9.81084 66.0584C9.91728 66.1558 10.0326 66.2531 10.139 66.3417C10.5205 66.6781 10.9197 66.9968 11.3277 67.3155C11.4164 67.3863 11.5051 67.4571 11.5938 67.5279C12.0817 67.8909 12.5873 68.2538 13.1107 68.5991C13.2349 68.6788 13.3679 68.7584 13.4921 68.847C13.9445 69.1391 14.4058 69.4224 14.8759 69.688C14.9912 69.7588 15.1066 69.8208 15.2219 69.8916C15.7896 70.2103 16.375 70.5201 16.9782 70.8123C17.1113 70.8831 17.2532 70.945 17.3952 71.007C17.9096 71.2549 18.433 71.4939 18.9741 71.7241C19.116 71.786 19.258 71.848 19.3999 71.91C20.0474 72.1756 20.7039 72.4323 21.378 72.6802C21.52 72.7333 21.6619 72.7775 21.8127 72.8307C22.3893 73.0343 22.9747 73.2202 23.569 73.4061C23.7376 73.4592 23.9061 73.5123 24.0747 73.5566C24.7932 73.769 25.5206 73.9638 26.2568 74.1497C26.3988 74.1851 26.5407 74.2117 26.6826 74.2471C27.3213 74.3976 27.9688 74.5481 28.6253 74.6809C28.7406 74.7074 28.8559 74.734 28.9712 74.7605C29.0422 74.7782 29.122 74.7871 29.2018 74.7959C29.9913 74.9464 30.7897 75.0881 31.6058 75.212C31.7477 75.2297 31.8896 75.2474 32.0227 75.274C32.7412 75.3802 33.4686 75.4687 34.2048 75.5573C34.329 75.575 34.4443 75.5927 34.5685 75.6015C34.6661 75.6104 34.7637 75.6192 34.8524 75.6281C35.3491 75.6812 35.8459 75.7255 36.3515 75.7609C36.5733 75.7786 36.795 75.7963 37.0168 75.814C37.7442 75.8671 38.4716 75.9114 39.2167 75.9379C39.2256 75.9379 39.2344 75.9379 39.2433 75.9379C39.261 75.9379 39.2699 75.9379 39.2877 75.9379C40.6626 75.9911 42.0641 76.0088 43.4923 75.9822C43.5189 75.9822 43.5455 75.9822 43.5721 75.9822C44.1931 75.9734 44.814 75.9556 45.4349 75.9291C46.1978 75.9025 46.9607 75.8583 47.7235 75.8051C48.0074 75.7874 48.2913 75.752 48.5751 75.7255C49.2404 75.6724 49.9057 75.6104 50.5621 75.5396C50.9347 75.5042 51.3161 75.4776 51.6887 75.4333C51.9725 75.3979 52.2475 75.3537 52.5225 75.3183C53.1789 75.2297 53.8353 75.1412 54.4918 75.0438C54.8643 74.9907 55.2369 74.9464 55.6094 74.8845C55.8756 74.8402 56.1328 74.7782 56.3989 74.734C57.0908 74.61 57.7739 74.4773 58.4569 74.3445C58.8295 74.2736 59.202 74.2117 59.5746 74.132C59.8052 74.0789 60.027 74.0169 60.2487 73.9726C61.0293 73.7956 61.8011 73.6097 62.5728 73.4061C62.9454 73.3087 63.3357 73.229 63.7083 73.1316C63.8591 73.0874 64.0099 73.0343 64.1607 72.99C65.2872 72.6802 66.396 72.3438 67.496 71.9897C67.7089 71.9188 67.9218 71.8657 68.1347 71.7949C68.179 71.7772 68.2234 71.7595 68.2766 71.7506C68.4451 71.6975 68.6048 71.6355 68.7733 71.5736C69.6426 71.2814 70.5297 70.9539 71.4079 70.6263Z" fill="url(#paint4_linear_544_12951)"/>
</g>
<defs>
<linearGradient id="paint0_linear_544_12951" x1="52.1577" y1="16.3662" x2="52.1577" y2="76.01" gradientUnits="userSpaceOnUse">
<stop stop-color="#CDE7FF"/>
<stop offset="1" stop-color="#C1E1FF"/>
</linearGradient>
<linearGradient id="paint1_linear_544_12951" x1="71.4213" y1="15.483" x2="84.6925" y2="15.483" gradientUnits="userSpaceOnUse">
<stop stop-color="#BE9EFF"/>
<stop offset="0.346" stop-color="#C889FF"/>
<stop offset="1" stop-color="#AB57F5"/>
</linearGradient>
<linearGradient id="paint2_linear_544_12951" x1="12.9381" y1="30.3606" x2="74.4688" y2="30.3606" gradientUnits="userSpaceOnUse">
<stop stop-color="#AB57F5"/>
<stop offset="0.654" stop-color="#C889FF"/>
<stop offset="1" stop-color="#BE9EFF"/>
</linearGradient>
<linearGradient id="paint3_linear_544_12951" x1="-0.000270573" y1="29.8194" x2="81.6447" y2="29.8194" gradientUnits="userSpaceOnUse">
<stop stop-color="#BE9EFF"/>
<stop offset="0.346" stop-color="#C889FF"/>
<stop offset="1" stop-color="#AB57F5"/>
</linearGradient>
<linearGradient id="paint4_linear_544_12951" x1="0.286358" y1="57.4247" x2="75.2121" y2="57.4247" gradientUnits="userSpaceOnUse">
<stop stop-color="#AB57F5"/>
<stop offset="0.654" stop-color="#C889FF"/>
<stop offset="1" stop-color="#BE9EFF"/>
</linearGradient>
<clipPath id="clip0_544_12951">
<rect width="101" height="76" fill="white"/>
</clipPath>
</defs>
</svg>
