<svg width="375" height="274" viewBox="0 0 375 274" fill="none" xmlns="http://www.w3.org/2000/svg">
<g filter="url(#filter0_ii_544_12915)">
<circle cx="182" cy="194" r="80" fill="url(#paint0_radial_544_12915)"/>
</g>
<g filter="url(#filter1_ii_544_12915)">
<path d="M328.427 154.646C324.896 154.646 321.497 155.212 318.313 156.254C314.906 145.106 304.566 137 292.338 137C277.336 137 265.174 149.201 265.174 164.251C265.174 166.425 265.43 168.54 265.909 170.567C253.107 171.473 243 182.178 243 195.252C243 208.92 254.045 220 267.669 220H328.427C346.417 220 361 205.37 361 187.323C361 169.275 346.417 154.646 328.427 154.646V154.646Z" fill="#F8F8F8"/>
</g>
<g filter="url(#filter2_ii_544_12915)">
<path d="M265.677 10.4173C263.582 10.4173 261.566 10.7516 259.677 11.3671C257.656 4.78569 251.522 0 244.268 0C235.369 0 228.154 7.20278 228.154 16.0878C228.154 17.3716 228.306 18.6199 228.59 19.8168C220.995 20.3513 215 26.6711 215 34.3897C215 42.4587 221.552 49 229.634 49H265.677C276.349 49 285 40.363 285 29.7086C285 19.0542 276.349 10.4173 265.677 10.4173V10.4173Z" fill="#F8F8F8"/>
</g>
<g filter="url(#filter3_ii_544_12915)">
<path d="M57.1298 63.3229C61.5888 63.3229 65.8812 64.0391 69.902 65.358C74.2032 51.2551 87.2596 41 102.7 41C121.644 41 137 56.4345 137 75.4739C137 78.2249 136.678 80.8999 136.072 83.4645C152.238 84.6099 165 98.1523 165 114.692C165 131.983 151.054 146 133.85 146H57.1301C34.4145 146 16 127.492 16 104.661C16 81.8304 34.4145 63.3229 57.1298 63.3229V63.3229Z" fill="#F8F8F8"/>
</g>
<path d="M249.208 100L251.402 104.146L255.417 106.415L251.402 108.682L249.208 112.831L247.012 108.682L243 106.415L247.012 104.146L249.208 100Z" fill="white"/>
<path d="M260.859 109.11L264.115 115.262L270.07 118.626L264.115 121.991L260.859 128.142L257.603 121.991L251.648 118.626L257.603 115.262L260.859 109.11Z" fill="white"/>
<defs>
<filter id="filter0_ii_544_12915" x="96" y="93" width="186" height="190" filterUnits="userSpaceOnUse" color-interpolation-filters="sRGB">
<feFlood flood-opacity="0" result="BackgroundImageFix"/>
<feBlend mode="normal" in="SourceGraphic" in2="BackgroundImageFix" result="shape"/>
<feColorMatrix in="SourceAlpha" type="matrix" values="0 0 0 0 0 0 0 0 0 0 0 0 0 0 0 0 0 0 127 0" result="hardAlpha"/>
<feOffset dx="20" dy="-21"/>
<feGaussianBlur stdDeviation="11"/>
<feComposite in2="hardAlpha" operator="arithmetic" k2="-1" k3="1"/>
<feColorMatrix type="matrix" values="0 0 0 0 0 0 0 0 0 0 0 0 0 0 0 0 0 0 0.14 0"/>
<feBlend mode="normal" in2="shape" result="effect1_innerShadow_544_12915"/>
<feColorMatrix in="SourceAlpha" type="matrix" values="0 0 0 0 0 0 0 0 0 0 0 0 0 0 0 0 0 0 127 0" result="hardAlpha"/>
<feOffset dx="-6" dy="9"/>
<feGaussianBlur stdDeviation="5.5"/>
<feComposite in2="hardAlpha" operator="arithmetic" k2="-1" k3="1"/>
<feColorMatrix type="matrix" values="0 0 0 0 1 0 0 0 0 1 0 0 0 0 1 0 0 0 0.3 0"/>
<feBlend mode="normal" in2="effect1_innerShadow_544_12915" result="effect2_innerShadow_544_12915"/>
</filter>
<filter id="filter1_ii_544_12915" x="227" y="122" width="142" height="109" filterUnits="userSpaceOnUse" color-interpolation-filters="sRGB">
<feFlood flood-opacity="0" result="BackgroundImageFix"/>
<feBlend mode="normal" in="SourceGraphic" in2="BackgroundImageFix" result="shape"/>
<feColorMatrix in="SourceAlpha" type="matrix" values="0 0 0 0 0 0 0 0 0 0 0 0 0 0 0 0 0 0 127 0" result="hardAlpha"/>
<feOffset dx="8" dy="-15"/>
<feGaussianBlur stdDeviation="8.5"/>
<feComposite in2="hardAlpha" operator="arithmetic" k2="-1" k3="1"/>
<feColorMatrix type="matrix" values="0 0 0 0 0 0 0 0 0 0 0 0 0 0 0 0 0 0 0.32 0"/>
<feBlend mode="normal" in2="shape" result="effect1_innerShadow_544_12915"/>
<feColorMatrix in="SourceAlpha" type="matrix" values="0 0 0 0 0 0 0 0 0 0 0 0 0 0 0 0 0 0 127 0" result="hardAlpha"/>
<feOffset dx="-18" dy="11"/>
<feGaussianBlur stdDeviation="8"/>
<feComposite in2="hardAlpha" operator="arithmetic" k2="-1" k3="1"/>
<feColorMatrix type="matrix" values="0 0 0 0 1 0 0 0 0 1 0 0 0 0 1 0 0 0 0.94 0"/>
<feBlend mode="normal" in2="effect1_innerShadow_544_12915" result="effect2_innerShadow_544_12915"/>
</filter>
<filter id="filter2_ii_544_12915" x="199" y="-15" width="94" height="75" filterUnits="userSpaceOnUse" color-interpolation-filters="sRGB">
<feFlood flood-opacity="0" result="BackgroundImageFix"/>
<feBlend mode="normal" in="SourceGraphic" in2="BackgroundImageFix" result="shape"/>
<feColorMatrix in="SourceAlpha" type="matrix" values="0 0 0 0 0 0 0 0 0 0 0 0 0 0 0 0 0 0 127 0" result="hardAlpha"/>
<feOffset dx="8" dy="-15"/>
<feGaussianBlur stdDeviation="8.5"/>
<feComposite in2="hardAlpha" operator="arithmetic" k2="-1" k3="1"/>
<feColorMatrix type="matrix" values="0 0 0 0 0 0 0 0 0 0 0 0 0 0 0 0 0 0 0.32 0"/>
<feBlend mode="normal" in2="shape" result="effect1_innerShadow_544_12915"/>
<feColorMatrix in="SourceAlpha" type="matrix" values="0 0 0 0 0 0 0 0 0 0 0 0 0 0 0 0 0 0 127 0" result="hardAlpha"/>
<feOffset dx="-18" dy="11"/>
<feGaussianBlur stdDeviation="8"/>
<feComposite in2="hardAlpha" operator="arithmetic" k2="-1" k3="1"/>
<feColorMatrix type="matrix" values="0 0 0 0 1 0 0 0 0 1 0 0 0 0 1 0 0 0 0.94 0"/>
<feBlend mode="normal" in2="effect1_innerShadow_544_12915" result="effect2_innerShadow_544_12915"/>
</filter>
<filter id="filter3_ii_544_12915" x="0" y="26" width="173" height="131" filterUnits="userSpaceOnUse" color-interpolation-filters="sRGB">
<feFlood flood-opacity="0" result="BackgroundImageFix"/>
<feBlend mode="normal" in="SourceGraphic" in2="BackgroundImageFix" result="shape"/>
<feColorMatrix in="SourceAlpha" type="matrix" values="0 0 0 0 0 0 0 0 0 0 0 0 0 0 0 0 0 0 127 0" result="hardAlpha"/>
<feOffset dx="8" dy="-15"/>
<feGaussianBlur stdDeviation="8.5"/>
<feComposite in2="hardAlpha" operator="arithmetic" k2="-1" k3="1"/>
<feColorMatrix type="matrix" values="0 0 0 0 0 0 0 0 0 0 0 0 0 0 0 0 0 0 0.32 0"/>
<feBlend mode="normal" in2="shape" result="effect1_innerShadow_544_12915"/>
<feColorMatrix in="SourceAlpha" type="matrix" values="0 0 0 0 0 0 0 0 0 0 0 0 0 0 0 0 0 0 127 0" result="hardAlpha"/>
<feOffset dx="-18" dy="11"/>
<feGaussianBlur stdDeviation="8"/>
<feComposite in2="hardAlpha" operator="arithmetic" k2="-1" k3="1"/>
<feColorMatrix type="matrix" values="0 0 0 0 1 0 0 0 0 1 0 0 0 0 1 0 0 0 0.94 0"/>
<feBlend mode="normal" in2="effect1_innerShadow_544_12915" result="effect2_innerShadow_544_12915"/>
</filter>
<radialGradient id="paint0_radial_544_12915" cx="0" cy="0" r="1" gradientUnits="userSpaceOnUse" gradientTransform="translate(213.831 150.393) rotate(132.136) scale(166.688 166.688)">
<stop stop-color="#FFF72C"/>
<stop offset="1" stop-color="#DF7800"/>
</radialGradient>
</defs>
</svg>
