<svg width="24" height="24" viewBox="0 0 24 24" fill="none" xmlns="http://www.w3.org/2000/svg">
<path d="M16.191 2H7.81C4.77 2 3 3.78 3 6.83V17.16C3 20.26 4.77 22 7.81 22H16.191C19.28 22 21 20.26 21 17.16V6.83C21 3.78 19.28 2 16.191 2" fill="#5E6272"/>
<path fill-rule="evenodd" clip-rule="evenodd" d="M8.08002 6.6499V6.6599C7.64902 6.6599 7.30002 7.0099 7.30002 7.4399C7.30002 7.8699 7.64902 8.2199 8.08002 8.2199H11.069C11.5 8.2199 11.85 7.8699 11.85 7.4289C11.85 6.9999 11.5 6.6499 11.069 6.6499H8.08002ZM15.92 12.7399H8.08002C7.64902 12.7399 7.30002 12.3899 7.30002 11.9599C7.30002 11.5299 7.64902 11.1789 8.08002 11.1789H15.92C16.35 11.1789 16.7 11.5299 16.7 11.9599C16.7 12.3899 16.35 12.7399 15.92 12.7399ZM15.92 17.3099H8.08002C7.78002 17.3499 7.49002 17.1999 7.33002 16.9499C7.17002 16.6899 7.17002 16.3599 7.33002 16.1099C7.49002 15.8499 7.78002 15.7099 8.08002 15.7399H15.92C16.319 15.7799 16.62 16.1199 16.62 16.5299C16.62 16.9289 16.319 17.2699 15.92 17.3099Z" fill="white"/>
</svg>
