<svg width="24" height="24" viewBox="0 0 24 24" fill="none" xmlns="http://www.w3.org/2000/svg">
<path d="M1.99979 12C1.99979 6.485 6.48579 2 11.9998 2C17.5138 2 21.9998 6.485 21.9998 12C21.9998 17.514 17.5138 22 11.9998 22C6.48579 22 1.99979 17.514 1.99979 12" fill="url(#paint0_linear_544_12757)"/>
<path d="M7.77908 13.4425C7.77908 13.2515 7.85208 13.0595 7.99808 12.9135L11.4681 9.42652C11.6091 9.28552 11.8001 9.20652 12.0001 9.20652C12.1991 9.20652 12.3901 9.28552 12.5311 9.42652L16.0031 12.9135C16.2951 13.2065 16.2951 13.6805 16.0011 13.9735C15.7071 14.2655 15.2321 14.2645 14.9401 13.9715L12.0001 11.0185L9.06008 13.9715C8.76808 14.2645 8.29408 14.2655 8.00008 13.9735C7.85208 13.8275 7.77908 13.6345 7.77908 13.4425Z" fill="white"/>
<defs>
<linearGradient id="paint0_linear_544_12757" x1="11.9998" y1="22" x2="11.9998" y2="2" gradientUnits="userSpaceOnUse">
<stop stop-color="#E2BDFF"/>
<stop offset="1" stop-color="#DBB0FD"/>
</linearGradient>
</defs>
</svg>
