<svg width="24" height="24" viewBox="0 0 24 24" fill="none" xmlns="http://www.w3.org/2000/svg">
<path d="M7.91591 22H16.0839C19.6229 22 21.9999 19.724 21.9999 16.335V7.665C21.9999 4.276 19.6229 2 16.0839 2H7.91591C4.37791 2 1.99991 4.277 1.99991 7.666L1.99991 16.335C1.99991 19.724 4.37791 22 7.91591 22" fill="url(#paint0_linear_544_12730)"/>
<path d="M12.8554 16.2792L16.6204 12.5312C16.9034 12.2492 16.9034 11.7502 16.6204 11.4672L12.8554 7.71918C12.5614 7.42718 12.0864 7.42818 11.7944 7.72218C11.5024 8.01618 11.5024 8.49018 11.7964 8.78318L14.2734 11.2502H7.9184C7.5034 11.2502 7.1684 11.5862 7.1684 12.0002C7.1684 12.4142 7.5034 12.7502 7.9184 12.7502H14.2734L11.7964 15.2162C11.6494 15.3632 11.5764 15.5552 11.5764 15.7482C11.5764 15.9392 11.6494 16.1312 11.7944 16.2772C12.0864 16.5702 12.5614 16.5712 12.8554 16.2792Z" fill="white"/>
<defs>
<linearGradient id="paint0_linear_544_12730" x1="1.99991" y1="12" x2="21.9999" y2="12" gradientUnits="userSpaceOnUse">
<stop stop-color="#E2BDFF"/>
<stop offset="1" stop-color="#DBB0FD"/>
</linearGradient>
</defs>
</svg>
