<svg width="24" height="24" viewBox="0 0 24 24" fill="none" xmlns="http://www.w3.org/2000/svg">
<path d="M10.0833 15.958H3.50777C2.67555 15.958 2 16.6217 2 17.4393C2 18.2559 2.67555 18.9207 3.50777 18.9207H10.0833C10.9155 18.9207 11.5911 18.2559 11.5911 17.4393C11.5911 16.6217 10.9155 15.958 10.0833 15.958" fill="url(#paint0_linear_544_12676)"/>
<path d="M22 6.37855C22 5.56202 21.3244 4.89832 20.4933 4.89832H13.9178C13.0856 4.89832 12.41 5.56202 12.41 6.37855C12.41 7.19617 13.0856 7.85988 13.9178 7.85988H20.4933C21.3244 7.85988 22 7.19617 22 6.37855" fill="url(#paint1_linear_544_12676)"/>
<path d="M8.87774 6.37856C8.87774 8.24523 7.33886 9.75821 5.43887 9.75821C3.53999 9.75821 2 8.24523 2 6.37856C2 4.51298 3.53999 3 5.43887 3C7.33886 3 8.87774 4.51298 8.87774 6.37856Z" fill="white"/>
<path d="M22 17.3992C22 19.2648 20.4611 20.7777 18.5611 20.7777C16.6622 20.7777 15.1223 19.2648 15.1223 17.3992C15.1223 15.5325 16.6622 14.0195 18.5611 14.0195C20.4611 14.0195 22 15.5325 22 17.3992Z" fill="white"/>
<defs>
<linearGradient id="paint0_linear_544_12676" x1="6.79553" y1="15.958" x2="6.79553" y2="18.9207" gradientUnits="userSpaceOnUse">
<stop stop-color="#E2BDFF"/>
<stop offset="1" stop-color="#DBB0FD"/>
</linearGradient>
<linearGradient id="paint1_linear_544_12676" x1="17.205" y1="4.89832" x2="17.205" y2="7.85988" gradientUnits="userSpaceOnUse">
<stop stop-color="#E2BDFF"/>
<stop offset="1" stop-color="#DBB0FD"/>
</linearGradient>
</defs>
</svg>
