<svg width="16" height="16" viewBox="0 0 16 16" fill="none" xmlns="http://www.w3.org/2000/svg">
<path d="M11.472 0H4.536C1.824 0 0 1.904 0 4.736V11.272C0 14.096 1.824 16 4.536 16H11.472C14.184 16 16 14.096 16 11.272V4.736C16 1.904 14.184 0 11.472 0Z" fill="#5E6272"/>
<path fill-rule="evenodd" clip-rule="evenodd" d="M4.41696 7.04297C3.88816 7.04297 3.45856 7.47257 3.45856 7.99978C3.45856 8.52778 3.88816 8.95818 4.41696 8.95818C4.94577 8.95818 5.37537 8.52778 5.37537 7.99978C5.37537 7.47257 4.94577 7.04297 4.41696 7.04297ZM8.00017 7.04297C7.47136 7.04297 7.04176 7.47257 7.04176 7.99978C7.04176 8.52778 7.47136 8.95818 8.00017 8.95818C8.52897 8.95818 8.95857 8.52778 8.95857 7.99978C8.95857 7.47257 8.52897 7.04297 8.00017 7.04297ZM10.6254 7.99978C10.6254 7.47257 11.055 7.04297 11.5838 7.04297C12.1126 7.04297 12.5422 7.47257 12.5422 7.99978C12.5422 8.52778 12.1126 8.95818 11.5838 8.95818C11.055 8.95818 10.6254 8.52778 10.6254 7.99978Z" fill="white"/>
</svg>
