<svg width="24" height="24" viewBox="0 0 24 24" fill="none" xmlns="http://www.w3.org/2000/svg">
<path d="M10.1326 6.14011V6.6738H11.2857V6.14011C11.2857 3.85726 9.4523 2 7.19862 2H6.62204V10.4346H4.75619C3.23642 10.4346 2 11.6899 2 13.2328V13.4875C2 15.0304 3.23642 16.2857 4.75619 16.2857H5.01893C6.5387 16.2857 7.77516 15.0304 7.77516 13.4875V3.22827C9.11779 3.50011 10.1326 4.70244 10.1326 6.14011V6.14011Z" fill="white"/>
<path d="M21.9999 6.28577L12.4632 7.6367L12.4631 16.0852H10.546C8.98457 16.0852 7.71423 17.3542 7.71423 18.9139V19.1713C7.71423 20.7311 8.98457 22.0001 10.546 22.0001H10.816C12.3775 22.0001 13.6478 20.7311 13.6478 19.1713V16.6885L13.6479 11.0693L20.8131 10.0543V14.9024H18.896C17.3346 14.9024 16.0642 16.1713 16.0642 17.7311V17.9885C16.0642 19.5483 17.3346 20.8172 18.896 20.8172H19.166C20.7275 20.8172 21.9978 19.5483 21.9978 17.9885L21.9999 6.28577Z" fill="white"/>
</svg>
