<svg width="24" height="24" viewBox="0 0 24 24" fill="none" xmlns="http://www.w3.org/2000/svg">
<path d="M16.0841 2L7.91609 2C4.37709 2 2.00009 4.276 2.00009 7.665L2.00009 16.335C2.00009 19.724 4.37709 22 7.91609 22L16.0841 22C19.6221 22 22.0001 19.723 22.0001 16.334L22.0001 7.665C22.0001 4.276 19.6221 2 16.0841 2" fill="#5E6272"/>
<path d="M10 14.2768V9.72318C10 8.95536 10.8295 8.47399 11.4961 8.85494L15.4806 11.1318C16.1524 11.5157 16.1524 12.4843 15.4806 12.8682L11.4961 15.1451C10.8295 15.526 10 15.0446 10 14.2768Z" fill="white"/>
</svg>
